<?xml version="1.0" encoding="utf-8"?>
<!-- Generator: Adobe Illustrator 19.2.1, SVG Export Plug-In . SVG Version: 6.00 Build 0)  -->
<svg version="1.1" id="layer" xmlns="http://www.w3.org/2000/svg" xmlns:xlink="http://www.w3.org/1999/xlink" x="0px" y="0px"
	 viewBox="0 0 652 652" style="enable-background:new 0 0 652 652;" xml:space="preserve">
<style type="text/css">
	.st0{fill:#E6371C;}
	.st1{fill:#005DA6;}
</style>
<polyline class="st0" points="462.9,255.5 431.1,413.5 480.7,413.5 511.8,255.5 "/>
<polyline class="st0" points="532,255.5 500.1,413.5 617.6,413.5 625.3,373.3 557.5,373.3 580.9,255.5 "/>
<path class="st0" d="M390,308.4c-3.2,18.1-25,17.1-26.1,17.1h-17.7l6.7-33.5h20.4C373.2,292.1,393.1,291,390,308.4 M390.3,255.5
	h-80.6l-31.5,158h50.5l10.1-51.4H375c17.7,0,60.1-10.6,64.5-53.9C443.3,270.2,417.2,255.5,390.3,255.5"/>
<path class="st1" d="M278.2,255.5L278.2,255.5c0,0-17.4,5.3-45.3,4.1c-28-1.2-68.9-18-102.4-19.6c-37.3-1.7-52.2,5.4-74.2,9.2
	l-0.1,0L53.2,264l3-0.6c22-3.9,36.9-11,74.2-9.2c33.5,1.6,74.4,18.4,102.4,19.6c21.2,0.9,36.3-2.1,42.3-3.4"/>
<path class="st1" d="M272.6,283.4c-0.1,0-17.4,5.3-45.3,4.1c-27.9-1.2-68.9-18-102.4-19.6c-37.3-1.7-52.2,5.4-74.2,9.2l-0.1,0
	l-2.9,14.7l3-0.6c22.1-3.9,37-11,74.2-9.2c33.5,1.6,74.4,18.4,102.4,19.6c21.2,0.9,36.3-2.1,42.4-3.4"/>
<path class="st1" d="M267,311.3c-0.4,0.1-17.6,5.3-45.3,4.1c-27.9-1.2-68.8-18-102.4-19.6c-37.3-1.7-52.2,5.4-74.2,9.2l-0.1,0
	l-2.9,14.7l3.1-0.6c22-3.9,36.9-10.9,74.2-9.2c33.5,1.6,74.4,18.4,102.4,19.6c21.2,0.9,36.3-2.1,42.3-3.4"/>
<path class="st1" d="M261.4,339.2c-0.5,0.1-17.8,5.3-45.3,4.1c-28-1.2-68.9-18-102.4-19.6c-37.3-1.7-52.2,5.4-74.2,9.2l-0.1,0
	l-2.9,14.7l3.1-0.6c22.1-3.9,37-10.9,74.2-9.2c33.5,1.5,74.4,18.4,102.4,19.6c21.2,0.9,36.2-2.1,42.3-3.4"/>
<path class="st1" d="M255.9,367.1c-0.8,0.2-18,5.3-45.3,4.1c-27.9-1.2-68.8-18-102.4-19.6C70.9,350,56,357,34,360.9l-0.2,0
	l-2.9,14.7l3.1-0.6c22-3.9,36.9-11,74.2-9.2c33.5,1.5,74.4,18.4,102.4,19.6c21.2,0.9,36.2-2.1,42.3-3.4"/>
<path class="st1" d="M250.3,395.1c-1,0.3-18.2,5.3-45.3,4.1c-27.9-1.2-68.8-18-102.3-19.6c-37.3-1.7-52.2,5.4-74.2,9.2l-0.2,0
	l-2.9,14.7l3.1-0.6c22-3.9,37-11,74.2-9.2c33.5,1.6,74.4,18.4,102.3,19.6c21.1,0.9,36.2-2.1,42.3-3.4"/>
</svg>
